<svg xmlns="http://www.w3.org/2000/svg" width="384.262" height="122.937"><g data-name="Group 6"><g data-name="Group 1"><path data-name="Path 1" d="M157.796 121.434l-26.87.278v-13.907l26.87-.278a3.776 3.776 0 100-7.553h-7.376a17.684 17.684 0 010-35.368h40.547l-17.389 13.907h-23.159a3.776 3.776 0 100 7.553h7.376a17.684 17.684 0 010 35.368z" fill="#fff"/></g><g data-name="Group 2"><path data-name="Path 2" d="M193.643 114.149a31.349 31.349 0 010-43.315c5.859-5.964 13.392-8.893 22.7-8.893s16.949 2.93 22.7 8.893a31.081 31.081 0 010 43.315c-5.755 5.859-13.392 8.788-22.7 8.788s-16.841-2.93-22.7-8.788zm32.015-12.242a13.184 13.184 0 003.767-9.52 13.038 13.038 0 00-13.078-13.078 12.171 12.171 0 00-9.206 3.871 12.468 12.468 0 00-3.767 9.207 13.182 13.182 0 003.767 9.52 12.466 12.466 0 009.206 3.767 12.7 12.7 0 009.311-3.767z" fill="#fff"/></g><path data-name="Path 3" d="M365.992 122.446h18.27v-61.4l-18.27 13.983z" fill="#fff"/><path data-name="Path 4" d="M271.283 107.63V63.419l-18.27 13.983v45.043h38.648V107.63z" fill="#fff"/><path data-name="Path 5" d="M348.19 59.027l-32.459 25.747V63.417L297.461 77.4v45.042l18.27-14.285 61.855-49.132z" fill="#fff"/><path data-name="Path 6" d="M89.687 79.475H53.03v5.973h15.342v36.264h5.969V85.448h15.342z" fill="#fff"/><g data-name="Group 3" fill="#fff"><path data-name="Rectangle 1" d="M26.362 60.297h5.973v61.414h-5.973z"/><path data-name="Path 7" d="M60.033 92.796H41.705V75.112a2.987 2.987 0 00-5.973 0v46.6h5.973V98.77h9.72v22.942h5.973V98.77h2.635a2.987 2.987 0 000-5.973z"/></g><g data-name="Group 4" fill="#fff"><path data-name="Rectangle 2" d="M110.381 60.297h5.973v61.414h-5.973z"/><path data-name="Path 8" d="M82.683 92.796h18.328V75.112a2.987 2.987 0 015.973 0v46.6h-5.973V98.77h-9.72v22.942h-5.973V98.77h-2.635a2.987 2.987 0 010-5.973z"/></g><g data-name="Group 5"><path data-name="Path 9" d="M122.829 38.385l-3.393 4.4-46.3-35.677-64.4 53.186H-.002L73.02-.006z" fill="#fff"/></g><path data-name="Path 10" d="M367.384 49.685h-250.35L73.022 15.77l-46.66 39.045h8.088l38.688-31.934 40.711 31.37 1.826 1.409h261.909z" fill="#fff"/></g></svg>