<svg width="24" height="24" xmlns="http://www.w3.org/2000/svg"><path fill-rule="evenodd" d="M9.55 9.83A1 1 0 0010 9V5a3 3 0 00-3-3H3a1 1 0 00-1 1c0 9.94 9.06 19 19 19a1 1 0 001-1v-4a3 3 0 00-3-3h-4a1 1 0 00-.83.45l-1.9 2.85a18.89 18.89 0 01-5.3-5.15l-.27-.41 2.85-1.9zM15.54 16H19a1 1 0 011 1v2.97a15.85 15.85 0 01-5.6-1.48l-.4-.2L15.54 16zM14 6a4 4 0 014 4 1 1 0 01-2 .12v-.27A2 2 0 0014 8a1 1 0 010-2zm0-4a8 8 0 018 8 1 1 0 01-2 0 6 6 0 00-6-6 1 1 0 010-2zM7 4a1 1 0 011 1v3.46L5.7 10a15.95 15.95 0 01-1.67-6H7z"/></svg>