<svg xmlns="http://www.w3.org/2000/svg" width="108.984" height="94"><g data-name="Group 200" transform="translate(-280 -4831)"><circle data-name="Ellipse 19" cx="47" cy="47" r="47" transform="translate(280 4831)" fill="#30383d"/><g data-name="Group 93"><path data-name="Path 195" d="M357.266 4898.186a2.356 2.356 0 00-2.953-.61l-7.382 3.946a10.531 10.531 0 01-4.971 1.246h-7.727a4.193 4.193 0 01-2.509-.833l-3.254-2.425 3.136-.438a8.6 8.6 0 011.682-.071l6.7.366a2.739 2.739 0 002.877-2.48 2.74 2.74 0 00-2.194-2.942l-5.532-1.1a19.882 19.882 0 01-4.523-1.487 63.618 63.618 0 00-7.032-2.828 23.317 23.317 0 00-17.663 1.285 35.42 35.42 0 00-11.695 9.3l7.469 10.41q.495-.482 1-.937a12.148 12.148 0 0112.866-2.247q.633.268 1.271.521a46.619 46.619 0 0020.76 2.989l6.539-.508a6.445 6.445 0 003.189-1.142l9.461-6.618a2.353 2.353 0 00.485-3.397z" fill="#f2a100"/><path data-name="Path 196" d="M329.518 4862.527a11.276 11.276 0 0011.264-11.265 11.276 11.276 0 00-11.263-11.263 11.276 11.276 0 00-11.264 11.263 11.276 11.276 0 0011.263 11.265zm0-17.03a5.773 5.773 0 015.767 5.767 5.773 5.773 0 01-5.767 5.767 5.774 5.774 0 01-5.767-5.767 5.774 5.774 0 015.767-5.768z" fill="#fff"/><path data-name="Path 197" d="M319.234 4882.674c2.067.514 4.062 1.171 6.175 1.866a66.11 66.11 0 009.422 2.585 31.166 31.166 0 005.282.447 34.187 34.187 0 0012-2.225l2.575-.967-.97-2.574c-3.2-8.5-11.733-14.391-21.738-15a55.437 55.437 0 00-6.957 0 25.919 25.919 0 00-16.294 6.886 22.507 22.507 0 00-3.114 3.652l-3.242 4.791 5.762-.514a34.028 34.028 0 0111.099 1.053zm6.127-10.387a50.4 50.4 0 016.28 0c6.741.414 12.6 3.788 15.659 8.835a27.158 27.158 0 01-11.531.585 60.892 60.892 0 01-8.64-2.39c-2.116-.7-4.3-1.415-6.571-1.98a46.141 46.141 0 00-6.307-1.12 20.8 20.8 0 0111.11-3.93z" fill="#fff"/></g><g data-name="Group 148"><path data-name="Path 240" d="M388.954 4905.761H376.22v-12.734h-4.478v12.734h-12.726v4.479h12.733v12.734h4.479v-12.734h12.726z" fill="#fff"/><path data-name="Rectangle 132" fill="#f2a100" d="M378.984 4893.322h10v10h-10z"/><path data-name="Rectangle 133" fill="#f2a100" d="M361.984 4914.322h6v6h-6z"/></g></g></svg>