<svg xmlns="http://www.w3.org/2000/svg" width="108.984" height="97"><g data-name="Group 201" transform="translate(-326 -5028)"><circle data-name="Ellipse 20" cx="47" cy="47" r="47" transform="translate(326 5028)" fill="#2c353a"/><g data-name="Group 104" transform="translate(1466.924 5044.046)"><circle data-name="Ellipse 18" cx="10.924" cy="10.924" r="10.924" transform="translate(-1126.727 .79)" fill="#f2a100"/><path data-name="Path 226" d="M-1116.505 40.427h23.262v-.746a6.646 6.646 0 00-6.647-6.647h-12.154a6.707 6.707 0 00-6.707-6.707h-5.579a4.945 4.945 0 00-4.945 4.944v23.847h12.965z" fill="#f2a100"/><g data-name="Group 101"><path data-name="Path 227" d="M-1070.684 22.639a10.937 10.937 0 01-10.924-10.924A10.937 10.937 0 01-1070.684.79a10.937 10.937 0 0110.924 10.924 10.938 10.938 0 01-10.924 10.925zm0-17.327a6.41 6.41 0 00-6.4 6.4 6.41 6.41 0 006.4 6.4 6.41 6.41 0 006.4-6.4 6.41 6.41 0 00-6.4-6.4z" fill="#fff"/></g><g data-name="Group 102"><path data-name="Path 228" d="M-1058.131 55.097h-17.968v-4.524h13.445v-19.74a2.249 2.249 0 00-2.245-2.247h-2.638a6.315 6.315 0 00-6.3 6.316v2.548h-13.34a3.807 3.807 0 00-3.724 3.045h20.787v4.522h-25.384v-3.769a8.329 8.329 0 018.32-8.32h9a10.845 10.845 0 0110.644-8.863h2.638a6.776 6.776 0 016.768 6.769z" fill="#fff"/></g><g data-name="Group 103"><path data-name="Path 229" d="M-1065.702 55.094h-46.942v-14.6h46.94zm-42.418-4.522h37.9v-5.555h-37.9z" fill="#fff"/></g></g><g data-name="Group 152"><path data-name="Path 240" d="M434.954 5107.787H422.22v-12.734h-4.478v12.734h-12.726v4.479h12.733V5125h4.479v-12.734h12.726z" fill="#fff"/><path data-name="Rectangle 132" fill="#f2a100" d="M424.984 5095.348h10v10h-10z"/><path data-name="Rectangle 133" fill="#f2a100" d="M407.984 5116.348h6v6h-6z"/></g></g></svg>