<svg xmlns="http://www.w3.org/2000/svg" width="107.132" height="94"><g data-name="Group 205" transform="translate(-995 -5025)"><circle data-name="Ellipse 24" cx="47" cy="47" r="47" transform="translate(995 5025)" fill="#2c353a"/><g data-name="Group 105"><path data-name="Path 230" d="M1072.164 5056.91l-25.52-13.814-35.132 6.529v11.519l3.461 1.793-3.451.648v11.489l3.46 1.8-3.46.641v11.52l25.886 13.43 34.744-6.914v-10.747l-4.316-2.343 4.316-.86v-10.738l-4.323-2.341 4.333-.86zm-26.083-10.238l22.663 12.274v5.912l-30.816 6.125-23-11.919v-6.6zm16.5 22.891l6.159 3.333v5.9l-30.825 6.145-22.981-11.931v-6.591l4.963-.932 17.522 9.091zm-47.651 10.791l4.982-.923 17.494 9.092 25.185-5.019 6.149 3.332v5.912l-30.825 6.136-22.985-11.93z" fill="#fff"/><path data-name="Rectangle 101" fill="none" d="M1027.814 5074.13h3.72v3.72h-3.72z"/><path data-name="Rectangle 102" fill="none" d="M1033.234 5077.65h3.72v3.73h-3.72z"/><path data-name="Rectangle 103" fill="none" d="M1016.964 5067.38h3.72v3.72h-3.72z"/><path data-name="Rectangle 104" fill="none" d="M1022.384 5070.92h3.73v3.72h-3.73z"/><path data-name="Rectangle 105" fill="none" d="M1041.834 5076.73h3.72v3.72h-3.72z"/><path data-name="Rectangle 106" fill="none" d="M1048.984 5075.28h3.72v3.72h-3.72z"/><path data-name="Rectangle 107" fill="none" d="M1062.424 5072.87h3.72v3.73h-3.72z"/><path data-name="Rectangle 108" fill="none" d="M1055.614 5073.5h3.72v3.73h-3.72z"/><path data-name="Path 231" d="M1062.664 5069.04l-25.17 5.01-17.52-9.09-5.54 1.04v7.31l23.41 12.16 31.4-6.26v-6.61zm-41.98 2.06h-3.72v-3.72h3.72zm5.43 3.54h-3.73v-3.72h3.73zm5.42 3.21h-3.72v-3.72h3.72zm5.42 3.53h-3.72v-3.73h3.72zm8.6-.93h-3.72v-3.72h3.72zm7.15-1.45h-3.72v-3.72h3.72zm6.63-1.77h-3.72v-3.73h3.72zm6.81-.63h-3.72v-3.73h3.72z" fill="#f2a100"/></g><g data-name="Group 153"><path data-name="Path 240" d="M1072.194 5104.703h12.734v12.734h4.478v-12.734h12.726v-4.479h-12.733v-12.734h-4.479v12.734h-12.726z" fill="#fff"/><path data-name="Rectangle 132" fill="#f2a100" d="M1082.164 5117.142h-10v-10h10z"/><path data-name="Rectangle 133" fill="#f2a100" d="M1099.164 5096.142h-6v-6h6z"/></g></g></svg>