<svg xmlns="http://www.w3.org/2000/svg" width="108.984" height="96.474"><g data-name="Group 202" transform="translate(-280 -5225)"><circle data-name="Ellipse 21" cx="47" cy="47" r="47" transform="translate(280 5225)" fill="#2c353a"/><g data-name="Group 95"><path data-name="Path 201" d="M361.678 5247.399v49.187a4.92 4.92 0 01-4.917 4.936h-6.748a4.929 4.929 0 01-4.917-4.931v-8.848a12.707 12.707 0 01-12.71-12.71v-6.056a12.71 12.71 0 0112.71-12.724v-8.848a4.926 4.926 0 014.917-4.923h6.751a4.917 4.917 0 014.914 4.917zm-5.515 3.792a2.982 2.982 0 00-2.987-2.986 2.994 2.994 0 00-3 2.986 3.006 3.006 0 003 3 2.994 2.994 0 002.988-3zm0 41.6a2.982 2.982 0 00-2.987-2.986 2.994 2.994 0 00-3 2.986 3.006 3.006 0 003 3 2.994 2.994 0 002.988-2.997z" fill="#fff"/><path data-name="Path 202" d="M328.66 5265.54v12.918h-17.822v-.389a6.067 6.067 0 006.07-6.07 6.059 6.059 0 00-6.07-6.07v-.389z" fill="#fff"/><path data-name="Path 203" d="M322.52 5280.32v11.724a7.535 7.535 0 01-7.529 7.529h-8.307a7.535 7.535 0 01-7.529-7.529v-11.724zm-3.473 11.724v-8.251h-16.419v8.251a4.061 4.061 0 004.056 4.056h8.307a4.061 4.061 0 004.056-4.056z" fill="#f2a100"/><path data-name="Path 204" d="M322.52 5252.359v11.321h-23.364v-11.321a7.535 7.535 0 017.529-7.529h8.307a7.535 7.535 0 017.528 7.529zm-3.473 7.848v-7.848a4.061 4.061 0 00-4.056-4.056h-8.307a4.061 4.061 0 00-4.056 4.056v7.848z" fill="#f2a100"/><path data-name="Path 205" d="M319.456 5283.487v8.661a4.263 4.263 0 01-4.258 4.258h-8.719a4.263 4.263 0 01-4.258-4.258v-8.661zm-4.564 7.495v-2.683a4.064 4.064 0 00-4.054-4.054 4.054 4.054 0 00-4.053 4.054v2.683a4.054 4.054 0 004.053 4.054 4.064 4.064 0 004.054-4.054z" fill="#f2a100"/><path data-name="Path 206" d="M319.456 5252.264v8.238h-17.235v-8.238a4.263 4.263 0 014.258-4.258h8.719a4.263 4.263 0 014.258 4.258zm-4.564 3.864v-2.683a4.064 4.064 0 00-4.054-4.054 4.054 4.054 0 00-4.054 4.054v2.683a4.054 4.054 0 004.054 4.054 4.064 4.064 0 004.054-4.054z" fill="#f2a100"/><path data-name="Path 207" d="M313.7 5271.069v1.861h-1.917v1.917h-1.875v-1.917h-1.917v-1.861h1.917v-1.917h1.875v1.917z" fill="#fff"/><path data-name="Path 208" d="M310.838 5278.069v.389h-18.516v-12.918h18.516v.389a6.068 6.068 0 00-6.07 6.07 6.076 6.076 0 006.07 6.07z" fill="#fff"/></g><g data-name="Group 150"><path data-name="Path 240" d="M388.954 5304.261H376.22v-12.734h-4.478v12.734h-12.726v4.479h12.733v12.734h4.479v-12.734h12.726z" fill="#fff"/><path data-name="Rectangle 132" fill="#f2a100" d="M378.984 5291.822h10v10h-10z"/><path data-name="Rectangle 133" fill="#f2a100" d="M361.984 5312.822h6v6h-6z"/></g></g></svg>