<svg xmlns="http://www.w3.org/2000/svg" width="108.004" height="94"><g data-name="Group 206" transform="translate(-913 -5225)"><circle data-name="Ellipse 25" cx="47" cy="47" r="47" transform="translate(913 5225)" fill="#2c353a"/><g data-name="Group 97"><path data-name="Path 213" d="M935.942 5287.848h29.075c-2.62-1.809-8.954-3.9-14.538-3.9s-11.917 2.091-14.537 3.9z" fill="none"/><path data-name="Path 214" d="M950.48 5266.009a4.673 4.673 0 004.68-4.68 4.673 4.673 0 00-4.68-4.679 4.673 4.673 0 00-4.68 4.679 4.673 4.673 0 004.68 4.68z" fill="none"/><path data-name="Path 215" d="M969.197 5272.25a10.931 10.931 0 0010.919-10.919 10.931 10.931 0 00-10.919-10.919 10.751 10.751 0 00-4.68 1.092 16.966 16.966 0 013.12 9.827 16.97 16.97 0 01-3.12 9.828 10.75 10.75 0 004.68 1.091z" fill="#f2a100"/><path data-name="Path 216" d="M972.442 5277.894c3.619 2.62 6.114 6.114 6.114 10.731v5.459h12.479v-5.459c.001-6.298-10.918-9.886-18.593-10.731z" fill="#f2a100"/><path data-name="Path 217" d="M950.479 5277.709c-7.3 0-21.837 3.65-21.837 10.919v5.459h43.675v-5.459c0-7.271-14.537-10.919-21.838-10.919zm-14.538 10.139c2.62-1.809 8.954-3.9 14.538-3.9s11.918 2.09 14.538 3.9z" fill="#fff"/><path data-name="Path 218" d="M950.481 5272.25a10.931 10.931 0 0010.919-10.919 10.931 10.931 0 00-10.919-10.919 10.931 10.931 0 00-10.919 10.919 10.931 10.931 0 0010.919 10.919zm0-15.6a4.673 4.673 0 014.68 4.679 4.673 4.673 0 01-4.68 4.68 4.673 4.673 0 01-4.68-4.68 4.673 4.673 0 014.68-4.677z" fill="#fff"/></g><g data-name="Group 151"><path data-name="Path 240" d="M991.066 5305.739h12.734v12.734h4.478v-12.734h12.726v-4.479h-12.733v-12.734h-4.479v12.734h-12.726z" fill="#fff"/><path data-name="Rectangle 132" fill="#f2a100" d="M1001.036 5318.178h-10v-10h10z"/><path data-name="Rectangle 133" fill="#f2a100" d="M1018.036 5297.178h-6v-6h6z"/></g></g></svg>