<svg xmlns="http://www.w3.org/2000/svg" width="108.984" height="99.51"><g data-name="Group 203" transform="translate(-326 -5419)"><circle data-name="Ellipse 22" cx="47" cy="47" r="47" transform="translate(326 5419)" fill="#2c353a"/><g data-name="Group 96"><path data-name="Path 209" d="M382.342 5448.574l-10.317 11.443-4.928-5.107-2.807 2.708 7.832 8.116 13.116-14.545z" fill="#fff"/><path data-name="Path 210" d="M416.217 5480.055h-14.861v-9.775h-2.665a91.835 91.835 0 002.7-25.249l-.013-.78-12.6-12.728h-31.555l-12.611 12.728-.013.78a91.779 91.779 0 002.7 25.249h-2.652v9.777h-14.874l7.333 10.219-7.323 10.204h31.932v-5.877h22.571v5.877h31.932l-7.32-10.206zm-57.363-44.634h28.3l10.349 10.466a86.537 86.537 0 01-2.86 24.393h-2.288c2.028-5.929 3.029-13.366 3.12-22.987l.013-.845-9.179-8.789h-26.627l-9.179 8.789.013.845c.091 9.621 1.105 17.058 3.133 22.987h-2.3a86.537 86.537 0 01-2.86-24.391zm32.725 12.676c-.156 9.5-1.248 16.642-3.38 22.181h-30.4c-2.132-5.539-3.224-12.676-3.367-22.181l6.826-6.54h23.485zm-33.765 48.483h-20.425l4.525-6.306-4.525-6.319h7.268v10.648h13.158zm-9.257-5.877v-16.523h48.9v5.877h-.013v3.9h.013v6.748zm60.067 5.877h-20.438v-1.977h13.171v-10.648h7.268l-4.525 6.319z" fill="#fff"/><path data-name="Path 211" d="M416.217 5480.054h-14.861v-3.133h-20.413a3.435 3.435 0 01.286.325 8 8 0 011.469 5.019 8.036 8.036 0 01-1.469 5.032 4.936 4.936 0 01-4.109 1.885 4.886 4.886 0 01-4.082-1.885 7.956 7.956 0 01-1.469-5.032 7.917 7.917 0 011.469-5.019c.091-.117.182-.221.273-.325h-3.8v12.04h-3.25v-8.959l-1.924 1.391-1.664-2.418 2.678-2.054h-20.7v3.133h-14.874l7.333 10.219-7.333 10.206h31.932v-5.876h22.571v5.877h31.932l-7.32-10.206zm-58.4 16.525h-20.425l4.525-6.306-4.525-6.319h7.268v10.649h13.158zm50.81 0h-20.438v-1.976h13.171v-10.648h7.268l-4.525 6.319zm-31.484-10.57c1.456 0 2.223-1.5 2.223-3.744 0-2.223-.78-3.744-2.223-3.744s-2.249 1.521-2.249 3.744c.004 2.262.784 3.744 2.249 3.744z" fill="#f2a100"/><path data-name="Path 212" d="M377.148 5478.521c-1.456 0-2.249 1.521-2.249 3.744 0 2.262.78 3.744 2.249 3.744s2.223-1.5 2.223-3.744c0-2.223-.78-3.744-2.223-3.744zm0 0c-1.456 0-2.249 1.521-2.249 3.744 0 2.262.78 3.744 2.249 3.744s2.223-1.5 2.223-3.744c0-2.223-.78-3.744-2.223-3.744zm-32.491-8.243v24.326h56.7v-24.326zm24.859 18.683h-3.25v-8.958l-1.924 1.391-1.665-2.418 2.678-2.054 1.742-1.339h2.418zm11.714-11.714a8 8 0 011.469 5.019 8.036 8.036 0 01-1.469 5.032 4.936 4.936 0 01-4.109 1.885 4.886 4.886 0 01-4.082-1.885 7.956 7.956 0 01-1.469-5.032 7.917 7.917 0 011.469-5.019c.091-.117.182-.221.273-.325a4.9 4.9 0 013.809-1.573 4.912 4.912 0 013.823 1.573 3.435 3.435 0 01.286.325zm-6.332 5.019c0 2.262.78 3.744 2.249 3.744s2.223-1.5 2.223-3.744c0-2.223-.78-3.744-2.223-3.744s-2.249 1.52-2.249 3.743zm2.249-3.744c-1.456 0-2.249 1.521-2.249 3.744 0 2.262.78 3.744 2.249 3.744s2.223-1.5 2.223-3.744c.001-2.224-.779-3.745-2.222-3.745zm0 0c-1.456 0-2.249 1.521-2.249 3.744 0 2.262.78 3.744 2.249 3.744s2.223-1.5 2.223-3.744c.001-2.224-.779-3.745-2.222-3.745z" fill="#f2a100"/></g><g data-name="Group 155"><path data-name="Path 240" d="M434.954 5501.297H422.22v-12.734h-4.478v12.734h-12.726v4.479h12.733v12.734h4.479v-12.734h12.726z" fill="#fff"/><path data-name="Rectangle 132" fill="#f2a100" d="M424.984 5488.858h10v10h-10z"/><path data-name="Rectangle 133" fill="#f2a100" d="M407.984 5509.858h6v6h-6z"/></g></g></svg>