<svg xmlns="http://www.w3.org/2000/svg" width="107.132" height="94"><g data-name="Group 207" transform="translate(-995 -5419)"><circle data-name="Ellipse 26" cx="47" cy="47" r="47" transform="translate(995 5419)" fill="#2c353a"/><g data-name="Group 94"><path data-name="Rectangle 99" fill="#f2a100" d="M1022.214 5450.145h39.411v6.829h-39.411z"/><path data-name="Path 198" d="M1024.464 5486.04h35.072v-25.051h-35.072zm8.643-14.454l5.286 5.286 12.2-12.2 2.655 2.656-14.853 14.854-7.942-7.941z" fill="none"/><path data-name="Rectangle 100" fill="none" d="M1024.464 5450.968h35.072v5.01h-35.072z"/><path data-name="Path 199" d="M1059.536 5445.958h-2.505v-5.01h-5.01v5.01h-20.042v-5.01h-5.01v5.01h-2.505a5.025 5.025 0 00-5.01 5.01v35.072a5.025 5.025 0 005.01 5.011h35.072a5.025 5.025 0 005.01-5.011v-35.072a5.025 5.025 0 00-5.01-5.01zm0 40.082h-35.072v-25.051h35.072zm0-30.061h-35.072v-5.011h35.072z" fill="#fff"/><path data-name="Path 200" d="M1053.248 5467.322l-2.655-2.655-12.2 12.2-5.286-5.286-2.655 2.655 7.941 7.941z" fill="#f2a100"/></g><g data-name="Group 154"><path data-name="Path 240" d="M1072.194 5498.212h12.734v12.734h4.478v-12.734h12.726v-4.479h-12.733v-12.734h-4.479v12.734h-12.726z" fill="#fff"/><path data-name="Rectangle 132" fill="#f2a100" d="M1082.164 5510.651h-10v-10h10z"/><path data-name="Rectangle 133" fill="#f2a100" d="M1099.164 5489.651h-6v-6h6z"/></g></g></svg>